<?xml version="1.0" encoding="utf-8"?>
<!-- Generator: Fusion 360, Shaper Origin Export Add-In, Version 1.8.0  -->
<svg xmlns="http://www.w3.org/2000/svg" xmlns:xlink="http://www.w3.org/1999/xlink" xmlns:shaper="http://www.shapertools.com/namespaces/shaper" shaper:fusionaddin="version:1.8.0" width="23.4284271cm" height="16.6848271cm" version="1.1" x="0cm" y="0cm" viewBox="0 0 23.4284271 16.6848271" enable-background="new 0 0 23.4284271 16.6848271" xml:space="preserve"><g id="Body_Body1"><path d="M-9.4142136,8.3424136 L14.0142136,8.3424136 14.0142136,-8.3424136 -9.4142136,-8.3424136 -9.4142136,8.3424136z" transform="matrix(1,0,0,-1,9.4142136,8.3424136)" fill="rgb(0,0,0)" shaper:cutDepth="0.6cm" stroke-linecap="round" stroke-linejoin="round" /><path d="M-9.4142136,8.3424136 L14.0142136,8.3424136 14.0142136,-8.3424136 -9.4142136,-8.3424136 -9.4142136,8.3424136z M-0.4133697,-7.75 L-0.0525239,-7.75 -0.0525239,-7.75 -0.0120093,-7.7489673 0.00819,-7.747922 0.0283197,-7.746242 0.0483603,-7.7437496 0.0683228,-7.7405449 0.1081174,-7.7329468 0.1081174,-7.7329468 0.1394699,-7.7239641 0.1548974,-7.7188875 0.1700265,-7.7131087 0.1847759,-7.7064365 0.1991966,-7.6989911 0.2274898,-7.6828104 0.2274898,-7.6828104 0.253066,-7.6629734 0.2653583,-7.6525531 0.2770561,-7.6415313 0.2880643,-7.6298116 0.2985293,-7.6175422 0.3185539,-7.5920873 0.3185539,-7.5920873 0.3398052,-7.5576727 0.3496784,-7.540108 0.3586504,-7.5221153 0.3666039,-7.5036388 0.373765,-7.4847859 0.3867668,-7.446453 0.3867668,-7.446453 0.398575,-7.3966759 0.4035628,-7.3716629 0.4074523,-7.3465008 0.4100824,-7.3211676 0.4117261,-7.2957005 0.4133698,-7.244543 0.4133698,-7.244543 0.4108608,-7.1838767 0.4084028,-7.1537473 0.4045007,-7.1238626 0.398763,-7.0942888 0.3914395,-7.0649836 0.3741474,-7.0068213 0.3741474,-7.0068213 0.3633971,-6.9826472 0.3521371,-6.958828 0.3398574,-6.9357186 0.3260484,-6.913674 0.3103375,-6.8929534 0.2930395,-6.8733378 0.2746833,-6.8544588 0.2557981,-6.8359482 0.2557981,-6.8359482 0.2221849,-6.8118448 0.204848,-6.8008701 0.1868749,-6.7911877 0.168146,-6.7830405 0.1488131,-6.7761202 0.1091405,-6.7643247 0.1091405,-6.7643247 0.0649332,-6.7573393 0.0427713,-6.7545043 0.0205409,-6.7524419 -0.0241082,-6.750444 -0.068895,-6.75 -0.4133697,-6.75 -0.4133697,-7.75z M-6.6159966,3.125 L-6.4836637,3.125 -6.4836637,3.5792974 -6.0143594,3.5792974 -6.0143594,3.6973056 -6.4836637,3.6973056 -6.4836637,4.0069918 -5.9413717,4.0069918 -5.9413717,4.125 -6.6159966,4.125 -6.6159966,3.125z M9.9225785,1.9067169 L9.9225785,1.9067169 9.9278233,1.8777784 9.9339707,1.8492848 9.937665,1.8353438 9.9419235,1.8216808 9.946859,1.8083515 9.9525843,1.7954114 9.9591889,1.7829046 9.9666138,1.7708021 9.9747418,1.7590461 9.9834559,1.7475788 10.0021732,1.7252797 10.0218281,1.7034427 10.0218281,1.7034427 10.0463195,1.6858838 10.0711814,1.6693373 10.0838669,1.66176 10.0967839,1.6548156 10.1099787,1.6486304 10.1234973,1.6433305 10.1373569,1.6389629 10.1515204,1.6354257 10.1659442,1.6326003 10.180585,1.6303681 10.2103441,1.6272085 10.2404502,1.624998 10.2404502,1.624998 10.2739932,1.6276238 10.3071154,1.6313468 10.3233872,1.6339627 10.3393959,1.6372643 10.355089,1.6413888 10.3704138,1.6464734 10.3853263,1.6526334 10.3998493,1.6598084 10.4140385,1.667854 10.4279494,1.6766251 10.4551591,1.6957632 10.4819236,1.7160621 10.4819236,1.7160621 10.5025841,1.7400689 10.5221326,1.7645535 10.5311424,1.7771241 10.5394571,1.7899934 10.5469379,1.8032209 10.5534456,1.8168663 10.5588855,1.8309705 10.5633482,1.8454944 10.5669733,1.8603782 10.5699005,1.8755617 10.5742194,1.9065884 10.5774215,1.9380949 10.5774215,1.9380949 10.57616,1.9597884 10.5742952,1.9812928 10.5712236,2.0024192 10.5663418,2.0229786 10.5630397,2.0329884 10.5591577,2.0428166 10.549982,2.0620307 10.5394773,2.0808285 10.5283083,2.0994182 10.5283083,2.0994182 10.5139458,2.1146173 10.4992098,2.1292182 10.4837269,2.1426225 10.4755887,2.1486891 10.4671239,2.1542326 10.4491993,2.1637254 10.4302232,2.1715338 10.410546,2.1782192 10.3905184,2.1843431 10.3905184,2.1843431 10.4204115,2.2005086 10.4346733,2.2094146 10.4481135,2.2193083 10.4605116,2.2304548 10.4720128,2.2426796 10.4935198,2.268927 10.4935198,2.268927 10.5082659,2.2966408 10.514604,2.3108036 10.5197003,2.3253336 10.5232864,2.34031 10.5256433,2.3556499 10.5283083,2.3869352 10.5283083,2.3869352 10.5253495,2.4209016 10.5228116,2.4375867 10.5190035,2.4539142 10.5136589,2.469809 10.5070692,2.4853533 10.4918145,2.5158574 10.4918145,2.5158574 10.470226,2.5450152 10.4586064,2.5586926 10.4459967,2.5712884 10.4322068,2.5825951 10.4174716,2.5928692 10.3864257,2.6116964 10.3864257,2.6116964 10.3502046,2.6267219 10.3318414,2.6331588 10.3131749,2.6383047 10.2941435,2.6418972 10.2748176,2.6442365 10.2356753,2.646826 10.2356753,2.646826 10.2085629,2.6449335 10.1817375,2.6422184 10.1554862,2.637858 10.1426655,2.6348038 10.130096,2.6310297 10.1178088,2.6264466 10.1057904,2.6210934 10.0824066,2.6085152 10.0596376,2.5941752 10.037176,2.5789542 10.037176,2.5789542 10.0180908,2.5584745 9.9998378,2.5375403 9.9832492,2.5156974 9.9758391,2.5042931 9.9691551,2.4924924 9.963218,2.4802838 9.9579408,2.4677149 9.9489891,2.4417021 9.9415458,2.4148656 9.9348568,2.3876173 10.0576398,2.3657892 10.0576398,2.3657892 10.0653986,2.4031412 10.070497,2.4212411 10.0770581,2.4386497 10.0855211,2.4551594 10.0957216,2.4708481 10.1070856,2.4859868 10.1190314,2.5008506 10.1190314,2.5008506 10.1322807,2.5108481 10.1457471,2.5202783 10.1596478,2.5285737 10.1741998,2.5351671 10.189527,2.5397346 10.2054746,2.5426808 10.2384038,2.545871 10.2384038,2.545871 10.2710125,2.5428781 10.2868003,2.5400365 10.3019685,2.5355806 10.3163554,2.52909 10.3300772,2.520867 10.3433555,2.5114887 10.356412,2.5015327 10.356412,2.5015327 10.3664834,2.4893475 10.3759919,2.4769301 10.3843749,2.4640483 10.3910694,2.4504697 10.3957363,2.4360545 10.3987698,2.4209654 10.4021146,2.3896637 10.4021146,2.3896637 10.400411,2.3707549 10.3979432,2.3522361 10.3939473,2.3344974 10.3911374,2.3260424 10.387659,2.3179288 10.3834273,2.3101996 10.3784739,2.3028389 10.3668121,2.2890132 10.3534984,2.2760308 10.3393588,2.2634699 10.3393588,2.2634699 10.306169,2.2460066 10.2892111,2.2385187 10.2718177,2.2325232 10.2538987,2.2283288 10.2355547,2.2255908 10.1981582,2.2225423 10.1981582,2.2225423 10.1783766,2.2239065 10.164734,2.1161303 10.164734,2.1161303 10.1861198,2.1213457 10.2076436,2.1256446 10.2294185,2.1282759 10.2513643,2.1297729 10.2513643,2.1297729 10.2710149,2.1281656 10.2904037,2.1258985 10.3092689,2.1223117 10.3184233,2.1198173 10.3273487,2.1167455 10.3360178,2.1130282 10.3444461,2.1087038 10.3607173,2.0985799 10.3764377,2.0870678 10.3918827,2.0748615 10.3918827,2.0748615 10.4041379,2.0595729 10.4156992,2.0440057 10.4258728,2.027881 10.4302224,2.0195226 10.433965,2.0109203 10.4370604,2.0020582 10.4395762,1.9929631 10.4432,1.9742077 10.4454988,1.9549201 10.4471351,1.9353663 10.4471351,1.9353663 10.4452737,1.9145134 10.4427037,1.893947 10.4387166,1.8739539 10.4359702,1.8642619 10.4326038,1.8548207 10.4285504,1.8456574 10.4238606,1.8367514 10.4129355,1.8195648 10.4005558,1.8029665 10.3874488,1.7866623 10.3874488,1.7866623 10.371463,1.7735652 10.3551817,1.7611853 10.3383096,1.75024 10.3295598,1.7455295 10.3205514,1.7414465 10.3112619,1.7380463 10.3017172,1.7352656 10.2820082,1.7312088 10.2617161,1.7285679 10.2411324,1.7266351 10.2411324,1.7266351 10.2071187,1.7299954 10.1906274,1.7330477 10.1747547,1.7377468 10.1596504,1.7444912 10.1451866,1.7529401 10.1311496,1.7625253 10.1173261,1.7726787 10.1173261,1.7726787 10.1038496,1.7892337 10.0909976,1.8061018 10.0793944,1.8235958 10.0696458,1.8420195 10.0618452,1.8614197 10.0555271,1.881563 10.0453616,1.923088 9.9225785,1.9067169z M10.5811733,-2.5247252 L10.0907231,-2.5247252 10.0907231,-2.5247252 10.1024723,-2.5071581 10.1149013,-2.4901186 10.1284181,-2.4739236 10.1425648,-2.4582176 10.1425648,-2.4582176 10.1770075,-2.4256089 10.2121369,-2.3937655 10.2480829,-2.362832 10.2844475,-2.332365 10.2844475,-2.332365 10.3336562,-2.290374 10.3819405,-2.2473997 10.4054486,-2.225238 10.428483,-2.2025725 10.4737381,-2.1563759 10.4737381,-2.1563759 10.4974422,-2.1280406 10.5087568,-2.113519 10.5194264,-2.0985727 10.5292612,-2.0830766 10.5383441,-2.0670854 10.5552524,-2.0342749 10.5552524,-2.0342749 10.5654951,-2.0056214 10.5699231,-1.9911513 10.5735192,-1.9765092 10.5760864,-1.9616543 10.577801,-1.9466231 10.579809,-1.9162667 10.579809,-1.9162667 10.5770926,-1.888233 10.5733877,-1.8606198 10.5708556,-1.8471024 10.5677058,-1.8338478 10.5638145,-1.8209087 10.5590584,-1.8083376 10.5533501,-1.7961717 10.5467675,-1.7843777 10.5394357,-1.7729026 10.5314793,-1.7616931 10.5141929,-1.7398588 10.4959073,-1.7184496 10.4959073,-1.7184496 10.4704834,-1.7000752 10.4446522,-1.6828202 10.4314567,-1.6749624 10.4180066,-1.6678043 10.4042512,-1.6614858 10.3901412,-1.6561419 10.3756725,-1.6517841 10.3608881,-1.6482943 10.345833,-1.6455485 10.3305523,-1.6434229 10.2994948,-1.6405356 10.2680764,-1.6386405 10.2680764,-1.6386405 10.2371211,-1.6403409 10.2064793,-1.6429655 10.191374,-1.6449133 10.1764647,-1.6474387 10.1617905,-1.6506574 10.1473908,-1.6546849 10.133303,-1.6596321 10.119526,-1.6654949 10.1060169,-1.6721476 10.0927311,-1.6794586 10.0666508,-1.6955285 10.0409277,-1.7126515 10.0409277,-1.7126515 10.020815,-1.7358411 10.0017613,-1.7595271 9.9929625,-1.7717113 9.9848256,-1.7842057 9.9774828,-1.7970723 9.971061,-1.8103705 9.9655652,-1.8241028 9.9608839,-1.8382168 9.9569006,-1.852658 9.9534991,-1.8673718 9.9479758,-1.8973992 9.9433834,-1.9278629 10.0695771,-1.9408234 10.0695771,-1.9408234 10.0709618,-1.9203715 10.0730025,-1.900169 10.0763556,-1.8804655 10.0787292,-1.8708787 10.081677,-1.8615102 10.0852772,-1.8523898 10.0895244,-1.8435153 10.0995988,-1.826367 10.1111602,-1.809784 10.1234652,-1.7934837 10.1234652,-1.7934837 10.1391081,-1.7814099 10.155027,-1.7700514 10.1714978,-1.7601233 10.1800264,-1.7559191 10.1887959,-1.7523394 10.1978143,-1.7494047 10.207053,-1.7470409 10.2260652,-1.7436993 10.2455807,-1.7416623 10.2653479,-1.7402776 10.2653479,-1.7402776 10.284219,-1.7416204 10.302859,-1.7435749 10.3210366,-1.7467531 10.3385207,-1.7517668 10.3469335,-1.7551451 10.355127,-1.7591039 10.3709805,-1.7684333 10.386332,-1.7790915 10.4014325,-1.7904141 10.4014325,-1.7904141 10.4127725,-1.8037601 10.4234965,-1.8173675 10.4329886,-1.8314977 10.4406328,-1.8464123 10.4460239,-1.8622832 10.449576,-1.8789346 10.4519022,-1.8961063 10.4536153,-1.9135382 10.4536153,-1.9135382 10.4509405,-1.9336668 10.4476544,-1.9535682 10.4431459,-1.9730151 10.436812,-1.9917832 10.4284804,-2.0098085 10.4186126,-2.0272627 10.3963165,-2.061219 10.3963165,-2.061219 10.3455722,-2.1185873 10.3193314,-2.1463866 10.2920891,-2.1731659 10.2638968,-2.1989775 10.2349907,-2.2240621 10.1759891,-2.2730198 10.1759891,-2.2730198 10.1336169,-2.3085546 10.1127806,-2.3266895 10.0923643,-2.3452654 10.0724991,-2.3644202 10.053156,-2.3841234 10.0153479,-2.4244523 10.0153479,-2.4244523 9.9912055,-2.4553361 9.9797843,-2.4711695 9.9691431,-2.4874728 9.9594915,-2.5043722 9.9506924,-2.5217851 9.9345157,-2.5574673 9.9345157,-2.5574673 9.9279858,-2.5782875 9.9252246,-2.5887824 9.923068,-2.599379 9.9216478,-2.6100996 9.9208284,-2.6209213 9.920191,-2.6427333 10.5811733,-2.6427333 10.5811733,-2.5247252z M6.5883705,-3.7743862 L6.5883705,-3.7743862 6.581102,-3.8014313 6.5731276,-3.8280787 6.5637416,-3.8539305 6.5582987,-3.8664337 6.5522381,-3.8785889 6.5454747,-3.8903479 6.5380083,-3.9017107 6.5213559,-3.9234673 6.503085,-3.9443116 6.4840048,-3.9646999 6.4840048,-3.9646999 6.462646,-3.9789948 6.4410041,-3.992472 6.4187959,-4.004314 6.4073909,-4.0093662 6.3957384,-4.0137034 6.3838235,-4.0172832 6.3716746,-4.0201869 6.3468082,-4.0243524 6.3214066,-4.0269725 6.2957374,-4.0288199 6.2957374,-4.0288199 6.2510344,-4.0251398 6.2290648,-4.0219211 6.2075536,-4.0170481 6.1866026,-4.0101535 6.1661097,-4.0016054 6.1258875,-3.9817531 6.1258875,-3.9817531 6.1069655,-3.9676465 6.0886261,-3.9530613 6.0714519,-3.937519 6.0634838,-3.9292394 6.0560252,-3.9205412 6.049105,-3.9114008 6.0426649,-3.901866 6.0309509,-3.8818384 6.0203345,-3.8609093 6.0102668,-3.8395294 6.0102668,-3.8395294 5.9937271,-3.7850996 5.986747,-3.7576624 5.9813128,-3.7299587 5.9776455,-3.7019505 5.9753597,-3.6737041 5.9730908,-3.6168145 5.9730908,-3.6168145 5.9755264,-3.5679251 5.9776651,-3.543631 5.9809087,-3.5195176 5.9855052,-3.4956255 5.9912104,-3.4719147 6.0044687,-3.4247954 6.0044687,-3.4247954 6.0136793,-3.4030216 6.023447,-3.3816576 6.0343287,-3.361113 6.0403614,-3.351276 6.0468815,-3.3417975 6.0539399,-3.3327148 6.0614942,-3.323997 6.0778074,-3.3074473 6.0952543,-3.2917314 6.1132681,-3.2764325 6.1132681,-3.2764325 6.1356706,-3.263825 6.1582961,-3.2519724 6.181368,-3.2416296 6.1931411,-3.2372604 6.2051088,-3.2335496 6.217276,-3.2305137 6.2296194,-3.2280737 6.2547339,-3.2246409 6.280251,-3.22257 6.3059694,-3.2211801 6.3059694,-3.2211801 6.3283083,-3.2224323 6.3504579,-3.2242981 6.3722288,-3.2273916 6.3934316,-3.2323263 6.4037625,-3.2356706 6.4139102,-3.2396083 6.4337596,-3.2489299 6.4531891,-3.2596124 6.4724086,-3.2709755 6.4724086,-3.2709755 6.4896643,-3.2878092 6.5062895,-3.3050554 6.5216538,-3.3231266 6.5286659,-3.3326004 6.5351344,-3.3424301 6.546548,-3.3630859 6.5563705,-3.3847828 6.5651322,-3.4071736 6.5733637,-3.4299114 6.7036502,-3.3992156 6.7036502,-3.3992156 6.6923253,-3.3679954 6.680189,-3.3373201 6.673563,-3.3223569 6.6664299,-3.3077343 6.6586882,-3.2935202 6.6502366,-3.2797829 6.6409876,-3.2665809 6.630981,-3.2538876 6.6203246,-3.2416305 6.6091266,-3.2297371 6.5855392,-3.2067503 6.5610853,-3.1843452 6.5610853,-3.1843452 6.5319417,-3.1670519 6.5024816,-3.1507781 6.4875338,-3.143342 6.4723882,-3.136543 6.4570052,-3.1305085 6.4413457,-3.1253643 6.4253995,-3.1211431 6.4091994,-3.1177396 6.3927816,-3.1150368 6.3761825,-3.112918 6.3425853,-3.1099653 6.3086979,-3.1079469 6.3086979,-3.1079469 6.276964,-3.1098239 6.24541,-3.1124179 6.2142157,-3.1164462 6.1988096,-3.1192222 6.1835609,-3.1226257 6.1684866,-3.1267249 6.1535741,-3.1314689 6.1241418,-3.1425228 6.0950791,-3.1550505 6.0662013,-3.1683152 6.0662013,-3.1683152 6.0399871,-3.1855928 6.0144137,-3.2034886 5.9901219,-3.2226204 5.9786568,-3.2328431 5.9677524,-3.2436065 5.9574551,-3.2549554 5.9477066,-3.2668338 5.9295427,-3.2918762 5.9126334,-3.3181288 5.8963514,-3.3449864 5.8963514,-3.3449864 5.8828028,-3.3776813 5.8700574,-3.4105568 5.8589181,-3.4437934 5.8542017,-3.4606036 5.8501863,-3.4775714 5.846895,-3.494702 5.8442441,-3.5119766 5.8404978,-3.5468756 5.8382155,-3.5821038 5.8366651,-3.6174966 5.8366651,-3.6174966 5.8383042,-3.6519935 5.8405716,-3.6863656 5.8440956,-3.7204879 5.8495046,-3.7542357 5.8572485,-3.7875196 5.8669317,-3.8204181 5.8779077,-3.8530598 5.8895301,-3.885573 5.8895301,-3.885573 5.9035313,-3.9137063 5.9181916,-3.9413015 5.93417,-3.9678206 5.9428594,-3.9805086 5.9521254,-3.9927257 5.9620384,-4.0044148 5.9725642,-4.0156036 5.995105,-4.0367652 6.0190476,-4.0567826 6.043691,-4.0762278 6.043691,-4.0762278 6.0746768,-4.0916407 6.1059169,-4.1060837 6.1217118,-4.1126383 6.1376658,-4.1185868 6.1538105,-4.1238077 6.1701755,-4.1281888 6.186758,-4.1317405 6.2035314,-4.1345648 6.2375413,-4.1384466 6.2719874,-4.1406656 6.3066515,-4.1420532 6.3066515,-4.1420532 6.3424371,-4.1396615 6.3778801,-4.1362324 6.395366,-4.1338048 6.4126378,-4.1307289 6.4296525,-4.1268751 6.4463674,-4.1221137 6.4627454,-4.1163324 6.4788028,-4.1095808 6.4945852,-4.1019968 6.5101384,-4.0937191 6.5407406,-4.0756375 6.5709762,-4.0564461 6.5709762,-4.0564461 6.5974237,-4.0301177 6.6228456,-4.0031592 6.6348516,-3.9892467 6.6462167,-3.9749403 6.6568126,-3.9601614 6.6665145,-3.944833 6.6753029,-3.9289432 6.6832854,-3.9125583 6.690577,-3.8957488 6.6972931,-3.8785856 6.7094587,-3.843481 6.7207033,-3.8078104 6.5883705,-3.7743862z M-6.6518083,-4.125 L-5.90556,-4.125 -5.90556,-4.0069919 -6.5194755,-4.0069919 -6.5194755,-3.6666098 -5.9662694,-3.6666098 -5.9662694,-3.5492837 -6.5194755,-3.5492837 -6.5194755,-3.2430082 -5.9287524,-3.2430082 -5.9287524,-3.125 -6.6518083,-3.125 -6.6518083,-4.125z M-0.46794,6.75 L-0.3274216,6.75 -0.2175989,7.0528649 0.2005457,7.0528649 0.3171896,6.75 0.46794,6.75 0.058663,7.75 -0.0839018,7.75 -0.46794,6.75z M10.4341746,-6.9282 L10.4341746,-5.9241072 10.3550478,-5.9241072 10.3550478,-5.9241072 10.3322322,-5.9611167 10.3200061,-5.978965 10.3068026,-5.9960294 10.2925337,-6.0122391 10.2774463,-6.0277922 10.2459073,-6.0578043 10.2459073,-6.0578043 10.2038523,-6.0916699 10.18231,-6.1078156 10.1601502,-6.1230171 10.1372553,-6.1370947 10.1137721,-6.1502729 10.0658254,-6.1751304 10.0658254,-6.2938207 10.0658254,-6.2938207 10.0991081,-6.2799486 10.1318311,-6.2649259 10.1636996,-6.248147 10.1950887,-6.2303828 10.1950887,-6.2303828 10.225791,-6.2114528 10.2556516,-6.1913762 10.2700158,-6.1805666 10.2840125,-6.1692563 10.3113916,-6.1457989 10.3113916,-6.9282 10.4341746,-6.9282z M5.9011262,3.125 L6.2824359,3.125 6.2824359,3.125 6.3231268,3.1258715 6.3434142,3.1268392 6.3636322,3.1284454 6.38376,3.1308806 6.4038055,3.1340702 6.4437592,3.1417122 6.4437592,3.1417122 6.4728085,3.1504136 6.4870578,3.1553647 6.5009769,3.1610363 6.5144737,3.1676291 6.5276014,3.175027 6.5532408,3.1911664 6.5532408,3.1911664 6.5754112,3.2113809 6.5858145,3.2220324 6.5954004,3.2333362 6.604049,3.245388 6.6119637,3.2580256 6.6265696,3.284277 6.6265696,3.284277 6.6392198,3.3157381 6.6446457,3.3316742 6.6489924,3.3478569 6.6520356,3.3643375 6.6540239,3.3810592 6.6562422,3.4149045 6.6562422,3.4149045 6.6547874,3.4353473 6.6527487,3.4555997 6.6495419,3.4754712 6.6445832,3.4947713 6.6374398,3.513359 6.6284665,3.5313499 6.6182732,3.5489429 6.60747,3.566337 6.60747,3.566337 6.5928241,3.5819034 6.5778109,3.5969137 6.5620631,3.6108116 6.545214,3.623042 6.5270836,3.6333323 6.5079423,3.642092 6.4881271,3.6498311 6.4679748,3.65706 6.4679748,3.65706 6.4987077,3.6748376 6.513335,3.6845651 6.5270754,3.6952991 6.5396912,3.7073094 6.5513394,3.7204177 6.5730225,3.7484652 6.5730225,3.7484652 6.5875713,3.7769718 6.5938551,3.7915091 6.59895,3.8063872 6.6025787,3.8216857 6.6049959,3.8373315 6.6078111,3.8692019 6.6078111,3.8692019 6.6045151,3.9041141 6.6017409,3.921239 6.5976155,3.9379666 6.5918736,3.9542188 6.5848333,3.9700892 6.5685887,4.0011937 6.5685887,4.0011937 6.5464655,4.0303412 6.5345502,4.0439255 6.5216105,4.0563227 6.5074246,4.0672756 6.4922237,4.0770523 6.4601303,4.0946453 6.4601303,4.0946453 6.4153291,4.1088033 6.3927139,4.1146639 6.369843,4.1190734 6.3466995,4.1219346 6.3233476,4.1236133 6.2762968,4.125 5.9011262,4.125 5.9011262,3.125z M10.3379945,5.9282 L10.4607777,5.9282 10.4607777,6.167627 10.5958391,6.167627 10.5958391,6.2801782 10.4607777,6.2801782 10.4607777,6.9282 10.3605048,6.9282 9.904161,6.2801782 9.904161,6.167627 10.3379945,6.167627 10.3379945,5.9282z" transform="matrix(1,0,0,-1,9.4142136,8.3424136)" fill="rgb(116,116,116)" fill-rule="nonzero" shaper:cutDepth="0.1cm" stroke-linecap="round" stroke-linejoin="round" /><path d="M10.3379945,6.2801782 L10.3379945,6.731065 10.0248977,6.2801782 10.3379945,6.2801782z" transform="matrix(1,0,0,-1,9.4142136,8.3424136)" fill="rgb(116,116,116)" fill-rule="nonzero" shaper:cutDepth="0.1cm" stroke-linecap="round" stroke-linejoin="round" /><path d="M6.0334591,3.704809 L6.2496938,3.704809 6.2496938,3.704809 6.2815246,3.7050076 6.3132186,3.706515 6.3289716,3.7081676 6.3446521,3.7105123 6.3758874,3.7164052 6.3758874,3.7164052 6.3977479,3.7245902 6.4082107,3.729383 6.4181126,3.7350161 6.4272985,3.7417217 6.4358608,3.7493617 6.4519448,3.7662005 6.4519448,3.7662005 6.4632811,3.7865349 6.4680725,3.7969671 6.471813,3.807717 6.4743455,3.8188321 6.4759313,3.8302333 6.4775246,3.8535129 6.4775246,3.8535129 6.4758611,3.8766178 6.4743101,3.8879712 6.471896,3.8990857 6.4684,3.9099007 6.4639907,3.9204631 6.45365,3.9411665 6.45365,3.9411665 6.4398793,3.9584288 6.4324301,3.966321 6.4243043,3.9733266 6.4153606,3.9792601 6.4057543,3.9843252 6.3854373,3.9930082 6.3854373,3.9930082 6.3477988,4.0001973 6.3289002,4.003041 6.3099111,4.0050277 6.2908378,4.0062169 6.2717012,4.0068077 6.2333227,4.0069918 6.0334591,4.0069918 6.0334591,3.704809z" transform="matrix(1,0,0,-1,9.4142136,8.3424136)" fill="rgb(116,116,116)" fill-rule="nonzero" shaper:cutDepth="0.1cm" stroke-linecap="round" stroke-linejoin="round" /><path d="M6.0334591,3.2430081 L6.2824359,3.2430081 6.2824359,3.2430081 6.3275631,3.2436551 6.3500453,3.245307 6.3724769,3.2477831 6.3724769,3.2477831 6.392465,3.2521632 6.4119894,3.2578175 6.4306957,3.2657192 6.4488752,3.2750682 6.4488752,3.2750682 6.4640275,3.2866445 6.47116,3.2928394 6.4777603,3.2995222 6.4837361,3.3067775 6.4892167,3.3144867 6.4993527,3.3306617 6.4993527,3.3306617 6.5079879,3.3508379 6.5116591,3.361081 6.5145547,3.37151 6.5165408,3.382157 6.5178059,3.3929768 6.5191344,3.4149045 6.5191344,3.4149045 6.5171423,3.4407544 6.5152828,3.4534207 6.512387,3.4657765 6.5081919,3.4777429 6.5028993,3.4893806 6.490485,3.5121078 6.490485,3.5121078 6.4739808,3.5311845 6.4651482,3.5399321 6.4556192,3.5477308 6.4452541,3.5543904 6.4342158,3.5601327 6.4110171,3.5700887 6.4110171,3.5700887 6.3749278,3.5781805 6.3567891,3.5814753 6.3385398,3.5838853 6.3201785,3.5854019 6.3017328,3.5862433 6.2647006,3.5868008 6.0334591,3.5868008 6.0334591,3.2430081z" transform="matrix(1,0,0,-1,9.4142136,8.3424136)" fill="rgb(116,116,116)" fill-rule="nonzero" shaper:cutDepth="0.1cm" stroke-linecap="round" stroke-linejoin="round" /><path d="M-0.2810368,-7.6319919 L-0.0675307,-7.6319919 -0.0675307,-7.6319919 -0.0282342,-7.6312819 -0.0086644,-7.6303162 0.0108112,-7.6286177 0.0301627,-7.625953 0.0493939,-7.6223532 0.0876535,-7.6135744 0.0876535,-7.6135744 0.1121771,-7.6041879 0.1240954,-7.5989096 0.1356014,-7.5929293 0.1465796,-7.5860501 0.1570949,-7.5783827 0.1773533,-7.5617326 0.1773533,-7.5617326 0.2008563,-7.5331439 0.2116854,-7.5183063 0.2214092,-7.5028179 0.2298741,-7.4865881 0.2373561,-7.4697795 0.2506821,-7.4351978 0.2506821,-7.4351978 0.2625879,-7.3877832 0.2675748,-7.3639383 0.2714059,-7.3399288 0.2739508,-7.315736 0.2755012,-7.2914016 0.2769441,-7.2424966 0.2769441,-7.2424966 0.2762258,-7.2110363 0.2748295,-7.1797324 0.2720772,-7.1487411 0.2699806,-7.1334116 0.2672908,-7.1182188 0.263923,-7.1031824 0.2598285,-7.0883136 0.2498053,-7.0589988 0.2380559,-7.030082 0.2254434,-7.0013642 0.2254434,-7.0013642 0.2131562,-6.9834523 0.2004566,-6.9660071 0.1869319,-6.9494953 0.1721698,-6.9343834 0.1641983,-6.9274954 0.1558219,-6.9210656 0.1380807,-6.9093241 0.1194093,-6.898635 0.1002729,-6.888472 0.1002729,-6.888472 0.0581632,-6.8782054 0.0369707,-6.8740945 0.0156185,-6.8711684 -0.005887,-6.8693803 -0.0275077,-6.8684476 -0.0709413,-6.8680082 -0.2810368,-6.8680082 -0.2810368,-7.6319919z" transform="matrix(1,0,0,-1,9.4142136,8.3424136)" fill="rgb(116,116,116)" fill-rule="nonzero" shaper:cutDepth="0.1cm" stroke-linecap="round" stroke-linejoin="round" /><path d="M-0.1793997,7.1606412 L0.159618,7.1606412 0.0552524,7.4375853 0.0552524,7.4375853 0.0361348,7.4889577 0.017716,7.5405674 0.0005747,7.5926108 -0.0156889,7.6449522 -0.0156889,7.6449522 -0.0265965,7.5964805 -0.0389104,7.5484052 -0.0535509,7.5009855 -0.0695771,7.4539564 -0.1793997,7.1606412z" transform="matrix(1,0,0,-1,9.4142136,8.3424136)" fill="rgb(116,116,116)" fill-rule="nonzero" shaper:cutDepth="0.1cm" stroke-linecap="round" stroke-linejoin="round" /><path d="M12,6.9282 L12.6,6.9282 12.6,-6.9282 12,-6.9282 12,6.9282z" transform="matrix(1,0,0,-1,9.4142136,8.3424136)" fill="rgb(133,133,133)" fill-rule="nonzero" shaper:cutDepth="0.2cm" stroke-linecap="round" stroke-linejoin="round" /><path d="M-1.2474082,6 A0.25,0.25 180 0,1 -0.7474082,6 L-0.5974082,6 -0.5974082,3 -1.3974082,3 -1.3974082,6 -1.2474082,6z" transform="matrix(1,0,0,-1,9.4142136,8.3424136)" fill="rgb(133,133,133)" fill-rule="nonzero" shaper:cutDepth="0.2cm" stroke-linecap="round" stroke-linejoin="round" /><path d="M-1.2474,-6 L-1.3974,-6 -1.3974,-3 -0.5974,-3 -0.5974,-6 -0.7474,-6 A0.25,0.25 0 0,1 -1.2474,-6z" transform="matrix(1,0,0,-1,9.4142136,8.3424136)" fill="rgb(133,133,133)" fill-rule="nonzero" shaper:cutDepth="0.2cm" stroke-linecap="round" stroke-linejoin="round" /><path d="M-4.8224524,-3.6472674 L-4.8974524,-3.5173636 -2.2993762,-2.0173636 -1.8993762,-2.7101839 -4.4974524,-4.2101839 -4.5724524,-4.0802801 A0.25,0.25 300 0,1 -4.8224524,-3.6472674z" transform="matrix(1,0,0,-1,9.4142136,8.3424136)" fill="rgb(133,133,133)" fill-rule="nonzero" shaper:cutDepth="0.2cm" stroke-linecap="round" stroke-linejoin="round" /><path d="M2.2993762,-2.0173636 L4.8974524,-3.5173636 4.8224524,-3.6472674 A0.25,0.25 60 0,1 4.5724524,-4.0802801 L4.4974524,-4.2101839 1.8993762,-2.7101839 2.2993762,-2.0173636z" transform="matrix(1,0,0,-1,9.4142136,8.3424136)" fill="rgb(133,133,133)" fill-rule="nonzero" shaper:cutDepth="0.2cm" stroke-linecap="round" stroke-linejoin="round" /><path d="M2.8967762,0.9826364 L5.4948524,2.4826364 5.5698524,2.3527326 A0.25,0.25 120 0,1 5.8198524,1.9197199 L5.8948524,1.7898161 3.2967762,0.2898161 2.8967762,0.9826364z" transform="matrix(1,0,0,-1,9.4142136,8.3424136)" fill="rgb(133,133,133)" fill-rule="nonzero" shaper:cutDepth="0.2cm" stroke-linecap="round" stroke-linejoin="round" /><path d="M-4.8224524,3.6472674 A0.25,0.25 240 0,1 -4.5724524,4.0802801 L-4.4974524,4.2101839 -1.8993762,2.7101839 -2.2993762,2.0173636 -4.8974524,3.5173636 -4.8224524,3.6472674z" transform="matrix(1,0,0,-1,9.4142136,8.3424136)" fill="rgb(133,133,133)" fill-rule="nonzero" shaper:cutDepth="0.2cm" stroke-linecap="round" stroke-linejoin="round" /><path d="M0.5974082,3 L0.5974082,6 0.7474082,6 A0.25,0.25 180 0,1 1.2474082,6 L1.3974082,6 1.3974082,3 0.5974082,3z" transform="matrix(1,0,0,-1,9.4142136,8.3424136)" fill="rgb(133,133,133)" fill-rule="nonzero" shaper:cutDepth="0.2cm" stroke-linecap="round" stroke-linejoin="round" /><path d="M1.2474,-6 A0.25,0.25 0 0,1 0.7474,-6 L0.5974,-6 0.5974,-3 1.3974,-3 1.3974,-6 1.2474,-6z" transform="matrix(1,0,0,-1,9.4142136,8.3424136)" fill="rgb(133,133,133)" fill-rule="nonzero" shaper:cutDepth="0.2cm" stroke-linecap="round" stroke-linejoin="round" /><path d="M-5.5698524,-2.3527326 A0.25,0.25 300 0,1 -5.8198524,-1.9197199 L-5.8948524,-1.7898161 -3.2967762,-0.2898161 -2.8967762,-0.9826364 -5.4948524,-2.4826364 -5.5698524,-2.3527326z" transform="matrix(1,0,0,-1,9.4142136,8.3424136)" fill="rgb(133,133,133)" fill-rule="nonzero" shaper:cutDepth="0.2cm" stroke-linecap="round" stroke-linejoin="round" /><path d="M5.8198524,-1.9197199 A0.25,0.25 60 1,1 5.5698524,-2.3527326 L5.4948524,-2.4826364 2.8967762,-0.9826364 3.2967762,-0.2898161 5.8948524,-1.7898161 5.8198524,-1.9197199z" transform="matrix(1,0,0,-1,9.4142136,8.3424136)" fill="rgb(133,133,133)" fill-rule="nonzero" shaper:cutDepth="0.2cm" stroke-linecap="round" stroke-linejoin="round" /><path d="M4.5724524,4.0802801 A0.25,0.25 120 0,1 4.8224524,3.6472674 L4.8974524,3.5173636 2.2993762,2.0173636 1.8993762,2.7101839 4.4974524,4.2101839 4.5724524,4.0802801z" transform="matrix(1,0,0,-1,9.4142136,8.3424136)" fill="rgb(133,133,133)" fill-rule="nonzero" shaper:cutDepth="0.2cm" stroke-linecap="round" stroke-linejoin="round" /><path d="M-5.5698524,2.3527326 L-5.4948524,2.4826364 -2.8967762,0.9826364 -3.2967762,0.2898161 -5.8948524,1.7898161 -5.8198524,1.9197199 A0.25,0.25 240 0,1 -5.5698524,2.3527326z" transform="matrix(1,0,0,-1,9.4142136,8.3424136)" fill="rgb(133,133,133)" fill-rule="nonzero" shaper:cutDepth="0.2cm" stroke-linecap="round" stroke-linejoin="round" /><path d="M11.25,-6.4282 a0.25,0.25 0 1,1 0.5,0 a0.25,0.25 0 1,1 -0.5,0z" transform="matrix(1,0,0,-1,9.4142136,8.3424136)" fill="rgb(255,255,255)" stroke="rgb(0,0,0)" stroke-width="0.0010cm" stroke-linecap="round" stroke-linejoin="round" shaper:cutDepth="0.6cm" /><path d="M11.25,2.1427333 a0.25,0.25 0 1,1 0.5,0 a0.25,0.25 0 1,1 -0.5,0z" transform="matrix(1,0,0,-1,9.4142136,8.3424136)" fill="rgb(255,255,255)" stroke="rgb(0,0,0)" stroke-width="0.0010cm" stroke-linecap="round" stroke-linejoin="round" shaper:cutDepth="0.6cm" /><path d="M11.25,-2.1427333 a0.25,0.25 0 1,1 0.5,0 a0.25,0.25 0 1,1 -0.5,0z" transform="matrix(1,0,0,-1,9.4142136,8.3424136)" fill="rgb(255,255,255)" stroke="rgb(0,0,0)" stroke-width="0.0010cm" stroke-linecap="round" stroke-linejoin="round" shaper:cutDepth="0.6cm" /><path d="M11.25,6.4282 a0.25,0.25 0 1,1 0.5,0 a0.25,0.25 0 1,1 -0.5,0z" transform="matrix(1,0,0,-1,9.4142136,8.3424136)" fill="rgb(255,255,255)" stroke="rgb(0,0,0)" stroke-width="0.0010cm" stroke-linecap="round" stroke-linejoin="round" shaper:cutDepth="0.6cm" /><path d="M-1.2474082,6 a0.25,0.25 0 1,1 0.5,0 a0.25,0.25 0 1,1 -0.5,0z" transform="matrix(1,0,0,-1,9.4142136,8.3424136)" fill="rgb(255,255,255)" stroke="rgb(0,0,0)" stroke-width="0.0010cm" stroke-linecap="round" stroke-linejoin="round" shaper:cutDepth="0.6cm" /><path d="M-1.2474,-6 a0.25,0.25 0 1,1 0.5,0 a0.25,0.25 0 1,1 -0.5,0z" transform="matrix(1,0,0,-1,9.4142136,8.3424136)" fill="rgb(255,255,255)" stroke="rgb(0,0,0)" stroke-width="0.0010cm" stroke-linecap="round" stroke-linejoin="round" shaper:cutDepth="0.6cm" /><path d="M-4.9474524,-3.8637737 a0.25,0.25 0 1,1 0.5,0 a0.25,0.25 0 1,1 -0.5,0z" transform="matrix(1,0,0,-1,9.4142136,8.3424136)" fill="rgb(255,255,255)" stroke="rgb(0,0,0)" stroke-width="0.0010cm" stroke-linecap="round" stroke-linejoin="round" shaper:cutDepth="0.6cm" /><path d="M-4.9474524,3.8637737 a0.25,0.25 0 1,1 0.5,0 a0.25,0.25 0 1,1 -0.5,0z" transform="matrix(1,0,0,-1,9.4142136,8.3424136)" fill="rgb(255,255,255)" stroke="rgb(0,0,0)" stroke-width="0.0010cm" stroke-linecap="round" stroke-linejoin="round" shaper:cutDepth="0.6cm" /><path d="M0.7474082,6 a0.25,0.25 0 1,1 0.5,0 a0.25,0.25 0 1,1 -0.5,0z" transform="matrix(1,0,0,-1,9.4142136,8.3424136)" fill="rgb(255,255,255)" stroke="rgb(0,0,0)" stroke-width="0.0010cm" stroke-linecap="round" stroke-linejoin="round" shaper:cutDepth="0.6cm" /><path d="M0.7474,-6 a0.25,0.25 0 1,1 0.5,0 a0.25,0.25 0 1,1 -0.5,0z" transform="matrix(1,0,0,-1,9.4142136,8.3424136)" fill="rgb(255,255,255)" stroke="rgb(0,0,0)" stroke-width="0.0010cm" stroke-linecap="round" stroke-linejoin="round" shaper:cutDepth="0.6cm" /><path d="M-5.9448524,-2.1362263 a0.25,0.25 0 1,1 0.5,0 a0.25,0.25 0 1,1 -0.5,0z" transform="matrix(1,0,0,-1,9.4142136,8.3424136)" fill="rgb(255,255,255)" stroke="rgb(0,0,0)" stroke-width="0.0010cm" stroke-linecap="round" stroke-linejoin="round" shaper:cutDepth="0.6cm" /><path d="M-5.9448524,2.1362263 a0.25,0.25 0 1,1 0.5,0 a0.25,0.25 0 1,1 -0.5,0z" transform="matrix(1,0,0,-1,9.4142136,8.3424136)" fill="rgb(255,255,255)" stroke="rgb(0,0,0)" stroke-width="0.0010cm" stroke-linecap="round" stroke-linejoin="round" shaper:cutDepth="0.6cm" /><path d="M4.4474524,3.8637737 a0.25,0.25 0 1,1 0.5,0 a0.25,0.25 0 1,1 -0.5,0z" transform="matrix(1,0,0,-1,9.4142136,8.3424136)" fill="rgb(255,255,255)" stroke="rgb(0,0,0)" stroke-width="0.0010cm" stroke-linecap="round" stroke-linejoin="round" shaper:cutDepth="0.6cm" /><path d="M4.4474524,-3.8637737 a0.25,0.25 0 1,1 0.5,0 a0.25,0.25 0 1,1 -0.5,0z" transform="matrix(1,0,0,-1,9.4142136,8.3424136)" fill="rgb(255,255,255)" stroke="rgb(0,0,0)" stroke-width="0.0010cm" stroke-linecap="round" stroke-linejoin="round" shaper:cutDepth="0.6cm" /><path d="M5.4448524,2.1362263 a0.25,0.25 0 1,1 0.5,0 a0.25,0.25 0 1,1 -0.5,0z" transform="matrix(1,0,0,-1,9.4142136,8.3424136)" fill="rgb(255,255,255)" stroke="rgb(0,0,0)" stroke-width="0.0010cm" stroke-linecap="round" stroke-linejoin="round" shaper:cutDepth="0.6cm" /><path d="M5.4448524,-2.1362263 a0.25,0.25 0 1,1 0.5,0 a0.25,0.25 0 1,1 -0.5,0z" transform="matrix(1,0,0,-1,9.4142136,8.3424136)" fill="rgb(255,255,255)" stroke="rgb(0,0,0)" stroke-width="0.0010cm" stroke-linecap="round" stroke-linejoin="round" shaper:cutDepth="0.6cm" /><path d="M-1.5,0 a1.5,1.5 0 1,1 3,0 a1.5,1.5 0 1,1 -3,0z" transform="matrix(1,0,0,-1,9.4142136,8.3424136)" fill="rgb(255,255,255)" stroke="rgb(0,0,0)" stroke-width="0.0010cm" stroke-linecap="round" stroke-linejoin="round" shaper:cutDepth="0.6cm" /></g></svg>